<svg xmlns="http://www.w3.org/2000/svg" fill="none" viewBox="0 0 408 284"><path fill="url(#a)" d="M274.5 203.6V66.3c0-21 5.4-37.4 16.3-49C301.6 5.8 317 0 337.5 0c20.4 0 36 5.8 46.7 17.3 10.9 11.6 16.3 28 16.3 49v137.3c0 14.8-2.7 27.1-8 37 1.5 3.7 5.4 5.6 11.7 5.6h3.8v37h-5.7c-17.8 0-29.7-6.1-35.8-18.2-9 3.3-18.7 5-29 5-20.4 0-36-5.9-46.7-17.4-10.9-11.6-16.3-28-16.3-49ZM316 63.7v142.5c0 17.3 7.2 26 21.5 26s21.5-8.7 21.5-26V63.7c0-17.3-7.2-26-21.5-26s-21.5 8.7-21.5 26Z"/><path fill="url(#b)" d="M216.8 3 259 267h-41.8l-7.2-48h-51l-7.2 47.9h-38L156 3h60.7Zm-32.4 46.8-20 133.4h40l-20-133.4Z"/><path fill="url(#c)" d="M41.5 40.7v79.6H95V158H41.5v108.9H0V3h109.7v37.7H41.5Z"/><defs><linearGradient id="a" x1="198.6" x2="198.6" y1="3" y2="333.4" gradientUnits="userSpaceOnUse"><stop stop-color="#E7E3D5"/><stop offset="1" stop-color="#E7E3D5" stop-opacity="0"/></linearGradient><linearGradient id="b" x1="198.6" x2="198.6" y1="3" y2="333.4" gradientUnits="userSpaceOnUse"><stop stop-color="#E7E3D5"/><stop offset="1" stop-color="#E7E3D5" stop-opacity="0"/></linearGradient><linearGradient id="c" x1="198.6" x2="198.6" y1="3" y2="333.4" gradientUnits="userSpaceOnUse"><stop stop-color="#E7E3D5"/><stop offset="1" stop-color="#E7E3D5" stop-opacity="0"/></linearGradient></defs></svg>