<svg xmlns="http://www.w3.org/2000/svg" style="display: none;">
  <symbol id="icon-drag" viewBox="0 0 23 12" fill="none">
    <path stroke-linecap="round" stroke-linejoin="round" stroke-width="2" d="m6.6 11-5-5 5-5m10 0 5 5-5 5" />
  </symbol>
  <symbol id="icon-dzen" viewBox="0 0 14 14" stroke="none">
    <path
      d="M13.691 6.69h.0034a.3065.3065 0 0 0 .3044-.3334C13.692 2.9814 11.02.3083 7.6448.001a.3102.3102 0 0 0-.2353.08.3056.3056 0 0 0-.098.228c.053 4.4855.6448 6.3183 6.3795 6.381Zm0 .6198c-5.7348.0626-6.3261 1.8955-6.3793 6.3809a.3056.3056 0 0 0 .3334.3081c3.3752-.3075 6.0472-2.9802 6.3537-6.3556a.3054.3054 0 0 0-.0801-.235c-.059-.0636-.1412-.095-.2277-.0984ZM6.3347.0025C2.9702.3188.3068 2.9913.0015 6.3571a.3053.3053 0 0 0 .08.235.3053.3053 0 0 0 .2244.0982h.0037c5.7158-.0657 6.306-1.8977 6.3597-6.38A.3065.3065 0 0 0 6.571.082a.3083.3083 0 0 0-.2362-.0795ZM.3093 7.3095c-.095-.0107-.1697.0345-.228.098a.3064.3064 0 0 0-.0801.2351c.3053 3.3659 2.969 6.0383 6.3335 6.3547a.3064.3064 0 0 0 .236-.0798.3065.3065 0 0 0 .0983-.2283c-.0538-4.482-.6436-6.314-6.3597-6.3797Z" />
  </symbol>
  <symbol id="icon-logo" viewBox="0 0 112 80" stroke="none">
    <path fill="var(--logo-icon-line-color)" d="M10.73 60.3h89.32v-1.12H10.73v1.12Zm0 19.7h89.32v-1.12H10.73V80Z" />
    <path fill="var(--logo-icon-main-color)"
      d="m5.16 75.07-.93-1.8a13.59 13.59 0 0 0-1.8-2.9c-.2-.22-.35-.34-.7-.34v5.04H0V63.41h3.23c2.35 0 3.43 1.5 3.43 3.35 0 1.66-.96 3.2-2.62 3.2.39.23 1.08 1.34 1.62 2.3l1.54 2.81H5.16ZM2.73 65h-.96v3.7h.89c.92 0 1.38-.16 1.73-.5.3-.31.46-.81.46-1.43 0-1.15-.58-1.77-2.12-1.77Zm6.12 10.07V63.41h5.85L14.47 65h-3.89v3.2h3.24v1.61h-3.24v3.66h4.24v1.65H8.85v-.04Zm13.35 0L21.37 72h-3.42l-.85 3.07h-1.8l3.45-11.7h2.04l3.39 11.7h-1.96Zm-2.5-9.73s-1.07 4.27-1.34 5.04h2.58c-.08-.23-1.16-4.58-1.23-5.04Zm11.09 9.73h-5.4V63.41h1.78v10.05h3.89l-.27 1.61Zm10.54-10.04h-2.65v10.04h-1.74V65.03h-2.69V63.4h7.31l-.23 1.62Zm6.35 10.04-.92-1.8a13.58 13.58 0 0 0-1.81-2.9c-.2-.22-.35-.34-.7-.34v5.04h-1.73V63.41h3.24c2.34 0 3.42 1.5 3.42 3.35 0 1.66-.96 3.2-2.62 3.2.39.23 1.08 1.34 1.62 2.3l1.54 2.81h-2.04ZM45.26 65h-.97v3.7h.89c.92 0 1.38-.16 1.73-.5.3-.31.46-.81.46-1.43 0-1.15-.58-1.77-2.11-1.77Zm11.78 10.07L56.19 72h-3.43l-.84 3.07H50.1l3.46-11.7h2.04L59 75.08h-1.96Zm-2.5-9.73s-1.08 4.27-1.35 5.04h2.58c-.08-.23-1.16-4.58-1.24-5.04Zm10.99 9.73-2.35-5.46a33.33 33.33 0 0 1-1.34-3.46l-.04.03c.07.97.07 2.2.11 3.24l.08 5.65h-1.73V63.41h2l2.58 5.7c.5 1.08.96 2.46 1.07 3l.04-.04c-.04-.58-.15-2.27-.15-3.3l-.04-5.32h1.66v11.66h-1.89v-.04Zm7.27.23a6.3 6.3 0 0 1-3.46-1.03l.65-1.5a5 5 0 0 0 2.85.96c1.3 0 2.08-.7 2.08-1.85 0-.85-.5-1.39-1.58-1.73l-1.12-.35c-.96-.3-1.65-.73-2.04-1.38a3 3 0 0 1-.42-1.7c0-2.04 1.46-3.46 3.58-3.46 1.2 0 2.42.39 3.35 1.12l-.81 1.34a4.13 4.13 0 0 0-2.5-.88c-1.04 0-1.74.61-1.74 1.58 0 .73.35 1.07 1.39 1.42l1.23.42c1.54.5 2.58 1.58 2.58 3.31.08 1.93-1.35 3.73-4.04 3.73Zm14.47-.23V69.7H83.7v5.38h-1.73V63.41h1.73v4.7h3.58v-4.7h1.77v11.66h-1.77Zm9.97 0L96.39 72h-3.42l-.85 3.07h-1.8l3.46-11.7h2.04l3.38 11.7h-1.96Zm-2.5-9.73s-1.12 4.27-1.35 5.04h2.58c-.08-.23-1.16-4.58-1.23-5.04Zm5.69 9.73V63.41h1.8v11.66h-1.8Zm9.45 0-.93-1.8a13.6 13.6 0 0 0-1.8-2.9c-.2-.22-.35-.34-.7-.34v5.04h-1.73V63.41h3.23c2.35 0 3.43 1.5 3.43 3.35 0 1.66-.97 3.2-2.62 3.2.38.23 1.08 1.34 1.61 2.3l1.55 2.81h-2.05ZM107.44 65h-.96v3.7h.88c.93 0 1.39-.16 1.74-.5.3-.31.46-.81.46-1.43 0-1.15-.58-1.77-2.12-1.77ZM34.28 50.3l-5.85-6.93a5.58 5.58 0 0 0-.84-.93c7.27-.08 7-6.2 7-6.2 0-6-8.16-5.8-8.16-5.8H15.27l-.04.65c3.54 0 3.28 2.54 3.28 2.54v16.78c0 2.54-3.12 2.61-3.12 2.61v.47h9.66v-.62c-3.43 0-3.31-2.3-3.31-2.3V42.7h2l8.66 10.85h6.04v-.69c-1.85.39-4.16-2.58-4.16-2.58Zm-11.62-8.4s-.96.04-.96-.23V33.6s-.12-1.96 2.23-1.96c0 0 6.54-.27 6.54 4.62-.04-.04.27 5.65-7.8 5.65Z" />
    <path fill="var(--logo-icon-main-color)"
      d="M38.59 53.87h-6.35l-.08-.08-8.58-10.77h-1.7v7.62s0 .69.55 1.27c.54.54 1.38.8 2.57.8h.2v1.04H15.1v-.88h.2c.11 0 2.92-.12 2.92-2.43V33.67c0-.04.08-.85-.5-1.5-.5-.58-1.38-.85-2.54-.85h-.23l.08-1.08h11.35c.2 0 4.46-.07 6.85 2.27a5 5 0 0 1 1.5 3.77c0 .08.08 2.5-1.7 4.35-1.15 1.23-2.84 1.93-5.03 2.04.15.16.3.35.5.62l5.85 6.92c.03.04 2.23 2.81 3.92 2.62l.23-.04v1.08h.08Zm-6.16-.42h5.73v-.23c-1.84 0-3.92-2.62-4.07-2.78l-5.85-6.92a3.27 3.27 0 0 0-.85-.89l-.46-.38h.58c2.3-.04 4.07-.66 5.23-1.93 1.65-1.73 1.58-4.04 1.58-4.07 0-1.43-.46-2.58-1.39-3.47-2.27-2.2-6.54-2.15-6.58-2.15H15.38l-.03.27c1.19.03 2.07.38 2.65 1 .7.77.62 1.73.62 1.77V50.4c0 2.3-2.39 2.73-3.12 2.8v.08h9.24v-.19c-1.2-.04-2.08-.35-2.66-.96-.65-.7-.65-1.54-.65-1.58v-8.04h2.3l8.7 10.93Zm-9.97-11.36c-.26 0-.69-.03-.88-.19-.08-.08-.12-.15-.12-.23V33.6c0-.04-.03-.89.58-1.5.42-.46 1.04-.66 1.85-.66h.23c.8 0 3.58.12 5.27 1.74.85.8 1.27 1.84 1.27 3.11 0 .08.12 2.04-1.46 3.7-1.39 1.46-3.58 2.2-6.5 2.2-.08-.09-.16-.09-.24-.09Zm-.57-.5c.11.04.42.08.73.08 2.8 0 4.92-.7 6.2-2.04 1.42-1.54 1.34-3.38 1.34-3.38 0-1.16-.38-2.12-1.11-2.81-1.81-1.74-5.16-1.62-5.2-1.62-.7 0-1.23.2-1.54.54-.5.5-.46 1.2-.46 1.2l.04 8.03ZM53.1 30.47H42.12v6.16h.42c0-4.7 5.8-4.85 5.8-4.85h2.13v18.44c0 2.84-3.2 2.96-3.2 2.96v.42l4.93-.04 4.88.04v-.42s-3.15-.16-3.15-2.96V31.78h2.12s5.8.16 5.8 4.85h.43v-6.16h-9.2Z" />
    <path fill="var(--logo-icon-main-color)"
      d="m57.33 53.83-5.12-.04-5.12.04v-.85h.2c.11 0 2.96-.15 2.96-2.77V31.97h-1.89c-.23 0-5.62.2-5.62 4.66v.2h-.84v-6.59h20.59v6.58h-.85v-.19c0-4.46-5.54-4.66-5.62-4.66h-1.88v18.24c0 2.62 2.84 2.77 2.96 2.77h.2v.85h.03Zm-5.12-.46 4.7.04v-.04c-.74-.08-3.16-.62-3.16-3.16V31.55h2.3c.09 0 5.86.2 6.01 4.85h.04v-5.73H42.32l.04 5.73c.15-4.66 5.96-4.85 6-4.85h2.31v18.66c0 2.58-2.46 3.08-3.2 3.16v.04l4.74-.04ZM90.9 30.93v-.42l-4.88.04-4.93-.04v.42s3.2.16 3.16 2.97v7.3H73.17v-7.3c0-2.85 3.15-2.97 3.15-2.97v-.42l-4.89.04-4.88-.04v.42s3.15.16 3.15 2.97v16.3c0 2.81-3.15 2.97-3.15 2.97v.42l4.88-.04 4.9.04v-.42s-3.16-.16-3.16-2.97v-7.77h11.08v7.77c0 2.85-3.2 2.97-3.2 2.97v.42l4.9-.04 4.92.04v-.42s-3.16-.16-3.16-3V33.82c0-2.77 3.2-2.89 3.2-2.89Z" />
    <path fill="var(--logo-icon-main-color)"
      d="m91.1 53.87-5.1-.04-5.13.04v-.85h.2c.11 0 2.96-.2 2.96-2.77v-7.58H73.37v7.58c0 2.62 2.85 2.77 2.96 2.77h.2v.85l-5.12-.04-5.12.04v-.85h.2c.1 0 2.95-.2 2.95-2.77V33.94c0-2.62-2.84-2.78-2.96-2.78h-.2v-.84l5.13.04 5.12-.04v.84h-.2c-.11 0-2.96.16-2.96 2.78v7.08h10.66v-7.08c0-2.62-2.85-2.78-2.96-2.78h-.2v-.84l5.12.04 5.12-.04v.84h-.2c-.1 0-2.96.16-2.96 2.78v16.35c0 2.62 2.85 2.77 2.97 2.77h.19v.8ZM86 53.4l4.69.04v-.04c-.74-.08-3.16-.62-3.16-3.16V33.9c0-2.58 2.46-3.08 3.2-3.16v-.04l-4.7.04-4.7-.04v.04c.74.08 3.2.62 3.16 3.16v7.5H73v-7.5c0-2.58 2.46-3.08 3.15-3.16v-.04l-4.7.04-4.69-.04v.04c.73.08 3.16.62 3.16 3.16v16.3c0 2.58-2.43 3.08-3.16 3.16v.04l4.7-.04 4.69.04v-.04c-.73-.08-3.16-.62-3.16-3.16v-8H84.5v8c0 2.58-2.46 3.08-3.2 3.16v.04H86Zm-41.56-.84c0 .89-.74 1.62-1.62 1.58-.89 0-1.62-.73-1.62-1.62 0-.88.73-1.61 1.62-1.61a1.7 1.7 0 0 1 1.62 1.65Zm18.7 0c0 .89-.73 1.62-1.62 1.58-.88 0-1.61-.73-1.61-1.62 0-.88.73-1.61 1.61-1.61.89.04 1.62.77 1.62 1.65Zm32.63 0c0 .89-.74 1.62-1.62 1.58-.89 0-1.62-.73-1.58-1.62 0-.88.73-1.61 1.62-1.61.84.04 1.58.77 1.58 1.65Z" />
    <path fill="var(--logo-icon-line-color)"
      d="M60.02 2.8S51.4.43 45.2.9c0 0-4.5 0-11.73 2.73l-.08 3.08s4.93-3.08 14.28-3.08c0 0 3.58-.16 10.23 1.5 0 0 11.05 3.27 19.47-2.2V0s-7.23 4.93-17.35 2.8Zm0 5.82S51.36 6.23 45.2 6.66c0 0-4.5 0-11.73 2.73l-.08 3.08s4.93-3.08 14.28-3.08c0 0 3.58-.15 10.23 1.5 0 0 11.05 3.27 19.47-2.2V5.78c0 .04-7.23 4.97-17.35 2.85Zm0 5.81s-8.66-2.39-14.82-1.96c0 0-4.5 0-11.73 2.73l-.08 3.08s4.93-3.08 14.28-3.08c0 0 3.58-.15 10.23 1.5 0 0 11 3.27 19.47-2.2v-2.92s-7.23 4.97-17.35 2.85Zm0 5.77s-8.66-2.38-14.82-1.96c0 0-4.5 0-11.73 2.73l-.08 3.08s4.93-3.08 14.28-3.08c0 0 3.58-.15 10.23 1.5 0 0 11.05 3.27 19.51-2.19v-2.93c-.04.04-7.27 5-17.39 2.85Z" />
  </symbol>
  <symbol id="icon-long-arrow" viewBox="0 0 55 11" stroke="none">
    <path d="M54.422 6.286a.708.708 0 0 0 0-1.001L49.917.78a.708.708 0 1 0-1.001 1.001l4.004 4.004-4.004 4.004a.708.708 0 1 0 1.001 1.001l4.505-4.504ZM.125 6.493h53.796V5.077H.125v1.416Z" />
  </symbol>
  <symbol id="icon-next" viewBox="0 0 24 24" fill="none">
    <path stroke-linecap="round" stroke-linejoin="round" stroke-width="1.4" d="m13.3 5 6.7 7m0 0-6.7 7m6.7-7H4" />
  </symbol>
  <symbol id="icon-play" viewBox="0 0 18 24" stroke="none">
    <path d="M15.75 10.38c1.03.74 1.54 1.1 1.54 1.62 0 .51-.51.88-1.54 1.62L3.17 22.7c-1.39 1-2.08 1.5-2.63 1.23C0 23.65 0 22.79 0 21.08V2.92C0 1.2 0 .35.54.07 1.1-.2 1.78.3 3.17 1.3l12.58 9.08Z" />
  </symbol>
  <symbol id="icon-prev" viewBox="0 0 24 24" fill="none">
    <path stroke-linecap="round" stroke-linejoin="round" stroke-width="1.4" d="M10.7 19 4 12m0 0 6.7-7M4 12h16" />
  </symbol>
  <symbol id="icon-telegram" viewBox="0 0 14 12" stroke="none">
    <path
      d="M13.9938 1.6155c-.1845 1.9443-.9844 6.6696-1.3905 8.8477-.1723.923-.5168 1.2306-.8368 1.2675-.7137.0615-1.2551-.4676-1.9443-.9229-1.0829-.7137-1.6981-1.1567-2.7441-1.8459-1.2183-.7998-.4307-1.2428.2707-1.9565.1846-.1846 3.3348-3.0518 3.3964-3.3102a.2458.2458 0 0 0-.0616-.2215c-.0738-.0616-.1722-.037-.2584-.0247-.1107.0247-1.8335 1.169-5.193 3.4333-.4922.3323-.9352.5045-1.329.4922-.443-.0123-1.2797-.246-1.9073-.4553-.7753-.2461-1.3782-.3815-1.329-.8121.0246-.2215.3322-.443.9106-.6769C5.1707 3.8674 7.558 2.8338 8.7517 2.3415 12.1725.9141 12.874.668 13.3415.668c.0985 0 .3323.0246.48.1476.123.0985.1599.2338.1722.3323-.0123.0738.0123.2953 0 .4676Z" />
  </symbol>
  <symbol id="icon-vkontakte" viewBox="0 0 15 9" stroke="none">
    <path fill-rule="evenodd" clip-rule="evenodd"
      d="M12.623 5.51c.486.497 1 .963 1.436 1.51.193.242.375.492.515.774.198.4.019.84-.325.865l-2.137-.001c-.55.047-.99-.184-1.36-.578-.296-.314-.57-.65-.854-.975a2.055 2.055 0 0 0-.385-.356c-.292-.198-.545-.138-.711.18-.17.323-.209.68-.225 1.04-.023.526-.175.664-.68.688-1.08.054-2.106-.117-3.058-.686-.84-.501-1.49-1.21-2.057-2.011C1.678 4.399.833 2.684.074.92-.096.524.028.31.448.304A55.54 55.54 0 0 1 2.54.302c.283.004.47.173.58.453.377.968.839 1.89 1.418 2.743.154.228.311.455.535.615.248.177.437.118.553-.17.074-.183.107-.38.123-.575.056-.673.063-1.346-.034-2.017-.06-.419-.285-.69-.686-.769-.204-.04-.173-.12-.074-.241C5.126.13 5.288 0 5.61 0h2.415c.38.078.464.257.516.656l.002 2.8c-.004.156.074.614.341.717.213.073.354-.106.482-.247.578-.64.991-1.398 1.36-2.182.163-.345.304-.703.44-1.06.101-.266.26-.397.546-.391l2.324.002c.07 0 .139.001.206.013.391.07.499.246.378.645-.191.627-.562 1.149-.924 1.673-.388.56-.803 1.1-1.187 1.664-.353.515-.325.774.114 1.22Z" />
  </symbol>
</svg>
