<svg xmlns="http://www.w3.org/2000/svg" fill="none" viewBox="0 0 28 24"><path fill="#47B1FE" d="m11.2656 3 2.2823 2.2823-2.2823 2.2822-2.2822-2.2822L11.2655 3Z"/><path fill="#303030" d="M8.9415 14.2761c-.353 0-.5378-.084-.5378-.521v-2.6892c0-2.101-1.479-3.1766-4.017-3.1766-2.4202 0-4.0674 1.1597-4.2186 2.8404h2.79c.0504-.5042.5714-.8403 1.3446-.8403.8067 0 1.227.4033 1.227 1.0084v.3362H4.2522C1.479 11.234 0 12.3096 0 14.2089c0 1.6975 1.395 2.5547 3.2606 2.5547 1.2606 0 2.1346-.5042 2.7732-1.5127v.0672c0 .7564.4202 1.3446 1.6303 1.3446h1.4623v-2.3866h-.1849ZM5.5296 13.066c-.0168 1.042-.6555 1.6975-1.6471 1.6975-.5883 0-.958-.3025-.958-.7731 0-.5883.5042-.9581 1.3782-.9581h1.227v.0337Zm4.2736 3.5967h2.9244V7.9901H9.8031v8.6726Zm15.0202-8.7734c-1.2101 0-2.2522.4706-2.874 1.3782-.5715-1.0757-1.5463-1.395-2.5548-1.3782-1.2269.0168-1.9832.4538-2.5547 1.126l-.2185-1.0252h-2.5547v8.6726h2.9077v-4.8069c0-1.0756.5714-1.6471 1.395-1.6471.8908 0 1.2101.5715 1.2101 1.6471v4.8069h2.9077v-4.8069c0-1.0756.5882-1.6471 1.395-1.6471.874 0 1.2101.5715 1.2101 1.6471v4.8069H28v-4.9749c0-2.79-1.395-3.7985-3.1766-3.7985Z"/></svg>